<?xml version="1.0" encoding="utf-8"?>
<!-- Generator: Adobe Illustrator 16.0.3, SVG Export Plug-In . SVG Version: 6.00 Build 0)  -->
<!DOCTYPE svg PUBLIC "-//W3C//DTD SVG 1.1//EN" "http://www.w3.org/Graphics/SVG/1.1/DTD/svg11.dtd">
<svg version="1.1" id="Capa_1" xmlns="http://www.w3.org/2000/svg" xmlns:xlink="http://www.w3.org/1999/xlink" x="0px" y="0px"
	 width="46.667px" height="46.5px" viewBox="0 0 46.667 46.5" enable-background="new 0 0 46.667 46.5" xml:space="preserve">
<g>
	<path fill-rule="evenodd" clip-rule="evenodd" fill="#869EB1" d="M42.355,24.553c0,4.237,0.018,8.473-0.004,12.709
		c-0.023,4.461-2.188,6.571-6.714,6.594c-0.907,0.004-1.82-0.058-2.722,0.012c-1.417,0.108-1.991-0.443-1.97-1.901
		c0.061-4.035,0.057-8.07,0.002-12.104c-0.021-1.515,0.508-2.311,2.095-2.191c3.767,0.283,3.082-2.897,3.398-4.834
		c0.391-2.375-1.807-1.871-3.206-1.901c-1.342-0.03-2.452-0.076-2.264-1.898c0.171-1.662,1.274-1.836,2.591-1.799
		c3.238,0.091,3.651-0.498,3.953-4.382c0.241-3.104-2.026-2.766-3.802-2.919c-1.89-0.163-3.8-0.229-5.682,0.431
		c-3.349,1.172-4.777,3.165-4.973,7.402c-0.074,1.579,0.258,2.95-2.146,3.475c-1.977,0.431-0.854,2.775-1.052,4.27
		c-0.139,1.039,0.001,2.138,1.448,2.12c1.575-0.022,1.757,0.898,1.747,2.161c-0.037,3.934-0.111,7.871,0.025,11.801
		c0.073,2-0.807,2.331-2.516,2.287c-3.628-0.095-7.263,0.006-10.894-0.039c-3.492-0.044-5.965-2.305-6.004-5.821
		C3.568,29.049,3.576,20.07,3.662,11.092c0.033-3.476,2.436-5.896,5.971-5.939c8.876-0.109,17.754-0.11,26.63-0.012
		c3.841,0.042,6.058,2.513,6.085,6.399C42.38,15.878,42.355,20.216,42.355,24.553z"/>
	<path fill-rule="evenodd" clip-rule="evenodd" fill="#869FB2" d="M25.331,34.82c0-1.713,0.007-3.426-0.004-5.14
		c-0.01-1.969,0.529-4.292-2.738-4.151c-0.613,0.028-0.763-0.539-0.783-1.076c-0.029-0.713,0.264-1.202,1.024-1.157
		c2.646,0.154,2.547-1.643,2.505-3.434c-0.021-0.907-0.021-1.814,0.002-2.721c0.102-3.951,5.351-6.865,8.866-4.968
		c0.65,0.352,0.828,0.785,0.778,1.443c-0.085,1.1-0.814,1.196-1.702,1.209c-2.361,0.036-4.09,0.964-4.634,3.458
		c-0.759,3.498,0.06,4.621,3.604,4.992c0.624,0.066,1.573-0.262,1.511,0.907c-0.051,0.968-0.685,1.533-1.604,1.4
		c-3.756-0.548-3.712,1.815-3.644,4.447c0.104,3.928,0.023,7.86,0.027,11.79c0.002,1.044,0.052,1.994-1.483,2.054
		c-1.649,0.062-1.755-0.865-1.733-2.101C25.36,39.457,25.331,37.138,25.331,34.82z"/>
</g>
</svg>
