<?xml version="1.0" encoding="utf-8"?>
<!-- Generator: Adobe Illustrator 16.0.3, SVG Export Plug-In . SVG Version: 6.00 Build 0)  -->
<!DOCTYPE svg PUBLIC "-//W3C//DTD SVG 1.1//EN" "http://www.w3.org/Graphics/SVG/1.1/DTD/svg11.dtd">
<svg version="1.1" id="Capa_1" xmlns="http://www.w3.org/2000/svg" xmlns:xlink="http://www.w3.org/1999/xlink" x="0px" y="0px"
	 width="43px" height="44px" viewBox="0 0 43 44" enable-background="new 0 0 43 44" xml:space="preserve">
<g>
	<path fill="#859EB1" d="M34.138,2.493C25.776,2.385,17.41,2.388,9.047,2.496C5.162,2.547,2.516,5.288,2.479,9.185
		c-0.078,8.363-0.075,16.728,0,25.091c0.035,3.914,2.716,6.434,6.657,6.466c4.082,0.033,8.165,0.007,12.248,0.007
		c4.182,0,8.364,0.02,12.546-0.005c4.296-0.024,6.8-2.538,6.813-6.883c0.025-8.164,0.027-16.33-0.002-24.494
		C40.726,5.248,38.249,2.546,34.138,2.493z M34.504,18.714c-0.135,2.058-1.806,1.739-3.197,1.268
		c-2.586-0.875-3.497-0.089-3.212,2.678c0.221,2.151,0.183,4.351-0.424,6.516c-1.286,4.585-5.328,7.311-10.487,6.921
		c-4.009-0.303-7.682-3.823-8.207-7.866c-0.627-4.831,1.927-9.405,6.187-10.698c1.239-0.375,3.262-1.68,3.792,0.499
		c0.439,1.805,1.242,4.154-0.931,5.734c-0.317,0.23-0.749,0.311-1.05,0.555c-0.992,0.808-1.606,1.807-1.082,3.121
		c0.488,1.221,1.425,1.977,2.77,1.836c1.477-0.155,2.344-1.094,2.367-2.598c0.045-2.985,0.013-5.973,0.013-8.959
		c0.023,0,0.046,0,0.07,0c0-2.688,0.001-5.376,0-8.065c-0.001-1.28,0.158-2.62,1.826-2.431c1.784,0.204,4.364-1.28,5.128,1.492
		c0.734,2.665,2.255,3.932,4.795,4.667C35.794,14.232,34.628,16.834,34.504,18.714z"/>
	<path fill="#87A0B2" d="M30.95,14.822c-2.129-0.811-3.833-2.187-4.516-4.435c-0.333-1.094-0.883-1.459-1.926-1.322
		c-1.39,0.183-0.991,1.26-1.002,2.08c-0.031,2.389-0.011,4.778-0.011,7.167c-0.014,0-0.028,0-0.042,0c0,2.587,0,5.175-0.001,7.763
		c0,0.199-0.007,0.398-0.029,0.597c-0.421,3.678-4.146,5.649-7.273,3.853c-3.059-1.758-3.284-5.506-0.399-8.237
		c0.789-0.747,1.66-1.597,0.988-2.48c-0.827-1.086-1.768,0.052-2.487,0.575c-2.733,1.985-3.745,5.523-2.519,8.5
		c1.328,3.224,4.618,5.153,7.885,4.625c3.645-0.589,6.054-3.236,6.204-6.941c0.085-2.087,0.032-4.18,0.036-6.271
		c0.006-4.25,0-4.233,4.144-3.148c0.787,0.207,1.813,0.821,2.264-0.427C32.661,15.622,31.903,15.185,30.95,14.822z"/>
</g>
</svg>
