<?xml version="1.0" encoding="utf-8"?>
<!-- Generator: Adobe Illustrator 16.0.3, SVG Export Plug-In . SVG Version: 6.00 Build 0)  -->
<!DOCTYPE svg PUBLIC "-//W3C//DTD SVG 1.1//EN" "http://www.w3.org/Graphics/SVG/1.1/DTD/svg11.dtd">
<svg version="1.1" id="Capa_1" xmlns="http://www.w3.org/2000/svg" xmlns:xlink="http://www.w3.org/1999/xlink" x="0px" y="0px"
	 width="44px" height="38.667px" viewBox="0 0 44 38.667" enable-background="new 0 0 44 38.667" xml:space="preserve">
<g>
	<path fill-rule="evenodd" clip-rule="evenodd" fill="#869EB1" d="M11.848,28.635c-4.533-2.477-5.557-7.048-6.501-10.928
		c-0.592-2.434-1.021-5.676-0.152-8.558C6.093,6.174,6.7,5.959,8.896,8.081c2.843,2.745,6.102,4.662,10.059,5.363
		c1.148,0.204,1.424-0.001,1.661-1.156c1.283-6.248,6.786-8.884,12.178-5.783c1.296,0.746,2.27,0.645,3.489,0.128
		c0.823-0.349,2.564-1.028,2.486-0.326c-0.188,1.707,2.523,3.05,0.853,4.409c-2.892,2.352-2.823,5.665-3.661,8.744
		C32.249,33.099,17.953,39.4,5.365,32.972c-0.811-0.413-2.092-0.684-1.861-1.891c0.24-1.255,1.494-0.956,2.422-0.959
		C7.886,30.117,9.763,29.805,11.848,28.635z"/>
</g>
</svg>
